<?xml version="1.0" encoding="utf-8"?>
<!-- Generator: Adobe Illustrator 24.1.0, SVG Export Plug-In . SVG Version: 6.00 Build 0)  -->
<svg version="1.1" id="Capa_1" xmlns="http://www.w3.org/2000/svg" xmlns:xlink="http://www.w3.org/1999/xlink" x="0px" y="0px"
	 viewBox="0 0 59 59" style="enable-background:new 0 0 59 59;" xml:space="preserve">
<g>
	<path d="M50,15c-0.6,0-1,0.4-1,1s0.4,1,1,1h7v22H11V17h7c0.6,0,1-0.4,1-1c0-0.6-0.4-1-1-1h-7V7c0-0.6-0.4-1-1-1H7.9
		C7.4,4.3,5.9,3,4,3C1.8,3,0,4.8,0,7s1.8,4,4,4c1.9,0,3.4-1.3,3.9-3H9v7v1v24v1v6c0,0.6,0.4,1,1,1h7c-1.2,0.9-2,2.4-2,4
		c0,2.8,2.2,5,5,5s5-2.2,5-5c0-1.6-0.8-3.1-2-4H41c-1.2,0.9-2,2.4-2,4c0,2.8,2.2,5,5,5s5-2.2,5-5c0-1.6-0.8-3.1-2-4h6
		c0.6,0,1-0.4,1-1s-0.4-1-1-1H11v-5h48v-1V16v-1H50z M4,9C2.9,9,2,8.1,2,7s0.9-2,2-2c0.7,0,1.4,0.4,1.7,1H5C4.4,6,4,6.4,4,7
		s0.4,1,1,1h0.7C5.4,8.6,4.7,9,4,9z"/>
	<path d="M34,2c-7.7,0-14,6.3-14,14s6.3,14,14,14s14-6.3,14-14S41.7,2,34,2z"/>
</g>
</svg>
