<svg xmlns="http://www.w3.org/2000/svg" viewBox="0 0 768.12 708.68"><g id="Capa_2" data-name="Capa 2"><g id="Layer_5" data-name="Layer 5"><path d="M1.06,17.43h0C5.09,4.6,19.57-2.8,33.23,1L196.76,46.33A26.09,26.09,0,0,1,206,51a19,19,0,0,1,9.55,16.23V142l544.9,81.19,7.64.48V353c0,52.66-40.2,96.66-93.3,106.4H261.39a118.92,118.92,0,0,1-45.81-18.84v104H654.5c39,8.31,68.29,41.49,68.29,81.06,0,45.82-39.21,83.09-87.41,83.09S548,671.41,548,625.59a79.46,79.46,0,0,1,11.14-40.53h-182a79.37,79.37,0,0,1,11.15,40.53c0,45.82-39.22,83.09-87.42,83.09s-87.41-37.27-87.41-83.09a79.37,79.37,0,0,1,11.15-40.53h-36c-11.28,0-20.5-8.67-20.5-19.25V89.1L18.56,47.64C4.9,43.85-3,30.26,1.06,17.43ZM635.38,668.15c24.4,0,44.25-19.09,44.25-42.56,0-19-13-35.16-31-40.6-.47,0-.93.07-1.4.07H621.93c-17.84,5.49-30.8,21.58-30.8,40.53C591.13,649.06,611,668.15,635.38,668.15Zm-334.55,0c24.4,0,44.25-19.09,44.25-42.56,0-19-12.95-35-30.79-40.53H287.38c-17.84,5.49-30.79,21.58-30.79,40.53C256.59,649.06,276.44,668.15,300.83,668.15Z"/></g></g></svg>